<svg xmlns="http://www.w3.org/2000/svg" viewBox="0 0 240 240"><defs><style>.cls-1{fill:#4c5b5c;}.cls-2{fill:#5fb6f2;}.cls-3{fill:#fbd245;}</style></defs><title>ignation_kleur_single_logo</title><g id="Layer_2" data-name="Layer 2"><g id="logo"><polygon class="cls-1" points="165 140 150 119.99 134.99 100 119.99 80 105 100 90 119.99 75 140 60 160 75 180 90 200 105 180 90 160 105 140 119.99 119.99 134.99 140 150 160 134.99 180 150 200 165 180 180 160 165 140"/><polygon class="cls-2" points="195 140 180 119.99 165 100 150 80 134.99 60 119.99 40 105 60 90 80 75 100 60 119.99 45 140 30 160 45 180 60 200 75 220 90 200 75 180 60 160 75 140 90 119.99 105 100 119.99 80 134.99 100 150 119.99 165 140 180 160 165 180 150 200 165 220 180 200 195 180 210 160 195 140"/><polygon class="cls-3" points="225 140 210 119.99 195 100 180 80 165 60 150 40 134.99 20 119.99 0 105 20 90 40 75 60 60 80 45 100 30 119.99 15 140 0 160 14.99 180 14.99 180 30 200 45 220 60 240 75 220 60 200 45 180 30 160 45 140 60 119.99 75 100 90 80 105 60 119.99 40 134.99 60 150 80 165 100 180 119.99 195 140 210 160 195 180 180 200 165 220 180 240 195 220 210 200 225 180 240 160 225 140"/></g></g></svg>